<?xml version="1.0" encoding="utf-8"?>
<!-- Generator: Adobe Illustrator 24.1.0, SVG Export Plug-In . SVG Version: 6.00 Build 0)  -->
<svg version="1.1" id="Layer_1" xmlns="http://www.w3.org/2000/svg" xmlns:xlink="http://www.w3.org/1999/xlink" x="0px" y="0px"
	 viewBox="0 0 16.8 22.2" style="enable-background:new 0 0 16.8 22.2;" xml:space="preserve">
<style type="text/css">
	.Drop_x0020_Shadow{fill:none;}
	.Outer_x0020_Glow_x0020_5_x0020_pt{fill:none;}
	.Blue_x0020_Neon{fill:none;stroke:#8AACDA;stroke-width:7;stroke-linecap:round;stroke-linejoin:round;}
	.Chrome_x0020_Highlight{fill:url(#SVGID_1_);stroke:#FFFFFF;stroke-width:0.3629;stroke-miterlimit:1;}
	.Jive_GS{fill:#FFDD00;}
	.Alyssa_GS{fill:#A6D0E4;}
	.st0{stroke:#FFFFFF;stroke-width:0.2334;stroke-miterlimit:10;}
</style>
<linearGradient id="SVGID_1_" gradientUnits="userSpaceOnUse" x1="-3.5911" y1="-0.36" x2="-3.5911" y2="-1.36">
	<stop  offset="0" style="stop-color:#656565"/>
	<stop  offset="0.618" style="stop-color:#1B1B1B"/>
	<stop  offset="0.6292" style="stop-color:#545454"/>
	<stop  offset="0.9831" style="stop-color:#3E3E3E"/>
</linearGradient>
<path class="st0" d="M11.4,3.4l0-1.3c0,0-1.4-1.8-3.2-1.9S3.7,0.9,3,3.8S2.8,7.4,2.9,8s1.2,1.7,1.2,1.7s-1.9,0.8-3,2.6
	s-1.3,5.2-0.2,6.8c1.3,1.8,4.8,2.9,6.9,3.1c3.3,0.2,5.8-0.8,6.6-1.3c0.9-0.5,2.1-1.4,2.1-1.4S13.3,19,11,18.7s-4.6-1.6-5.3-2.9
	S5,13.2,5.5,12.2S7.1,10,8.6,10s3.4,0.5,3.7,1.1L13.3,6c0,0-1.5,0.5-2.9,0.5S8,6.5,6.8,5.8s-0.3-2.6,0.8-3S11.4,3.4,11.4,3.4z"/>
</svg>
