<?xml version="1.0" encoding="utf-8"?>
<!-- Generator: Adobe Illustrator 18.1.1, SVG Export Plug-In . SVG Version: 6.00 Build 0)  -->
<svg version="1.1" id="Capa_1" xmlns="http://www.w3.org/2000/svg" xmlns:xlink="http://www.w3.org/1999/xlink" x="0px" y="0px"
	 viewBox="0 0 612 792" enable-background="new 0 0 612 792" xml:space="preserve">
<circle fill="#FFCBCB" cx="306" cy="396" r="306"/>
<g>
	<path fill="#FF5656" d="M306,90C136.9,90,0,226.9,0,396c0,169,136.9,306,306,306s306-137,306-306C612,226.9,475.1,90,306,90z
		 M306,652.1C164.6,652.1,49.9,537.5,49.9,396c0-141.5,114.7-256.2,256.1-256.2S562.1,254.5,562.1,396
		C562.1,537.5,447.5,652.1,306,652.1z"/>
	<polygon fill="#FF5656" points="337,454.7 348.8,239.6 263.8,239.6 275.7,454.7 	"/>
	<path fill="#FF5656" d="M306.3,490.4c-29.9,0-50.9,20.9-50.9,51.5c0,29.4,20.3,51.4,49.7,51.4h1.2c30.5,0,50.3-22,50.3-51.4
		C356,511.3,336.2,490.4,306.3,490.4z"/>
</g>
</svg>
