<svg xmlns="http://www.w3.org/2000/svg" width="28" height="28" viewBox="0 0 28 28"><defs><style>.a{fill:#080040;stroke:#080040;stroke-miterlimit:10;stroke-width:0.2px;}</style></defs><g transform="translate(4 2)"><path class="a" d="M.575,0A.576.576,0,0,0,0,.575V11.437a.588.588,0,0,0,.037.227.565.565,0,0,0,.123.195.574.574,0,0,0,.415.177.578.578,0,0,0,.415-.177.58.58,0,0,0,.123-.195.569.569,0,0,0,.036-.227V.575A.575.575,0,0,0,.575,0Z" transform="translate(12.751 8.891)"/><path class="a" d="M.575,0A.576.576,0,0,0,0,.575V11.437a.588.588,0,0,0,.037.227.565.565,0,0,0,.123.195.574.574,0,0,0,.415.177.578.578,0,0,0,.415-.177.58.58,0,0,0,.123-.195.569.569,0,0,0,.036-.227V.575A.575.575,0,0,0,.575,0Z" transform="translate(5.969 8.891)"/><path class="a" d="M4.5,24.541a2.835,2.835,0,0,1-2.053-.888A3.173,3.173,0,0,1,1.6,21.466V7.306a2.2,2.2,0,0,1,.563-4.317H5.112V2.271a2.284,2.284,0,0,1,.17-.872A2.26,2.26,0,0,1,5.775.66a2.226,2.226,0,0,1,.74-.491A2.249,2.249,0,0,1,7.387,0h5.1a2.256,2.256,0,0,1,2.275,2.271v.718h2.943a2.2,2.2,0,0,1,.563,4.317v14.16a3.165,3.165,0,0,1-.843,2.187,2.821,2.821,0,0,1-2.053.888Z" transform="translate(0 0)"/><path class="a" d="M.575,0A.576.576,0,0,0,0,.575V11.437a.588.588,0,0,0,.037.227.565.565,0,0,0,.123.195.574.574,0,0,0,.415.177.578.578,0,0,0,.415-.177.58.58,0,0,0,.123-.195.569.569,0,0,0,.036-.227V.575A.575.575,0,0,0,.575,0Z" transform="translate(9.36 8.891)"/></g></svg>