<svg xmlns="http://www.w3.org/2000/svg" width="25" height="25" viewBox="0 0 25 25"><path d="M21.256,5.883a12.392,12.392,0,0,0-19.5,14.95L0,27.25l6.568-1.725a12.347,12.347,0,0,0,5.921,1.506h.006A12.508,12.508,0,0,0,25,14.644a12.437,12.437,0,0,0-3.744-8.761ZM12.494,24.945a10.278,10.278,0,0,1-5.245-1.434l-.374-.223L2.98,24.31l1.038-3.8-.245-.39a10.317,10.317,0,1,1,19.136-5.475A10.412,10.412,0,0,1,12.5,24.945Zm5.648-7.712c-.307-.156-1.83-.9-2.115-1s-.491-.156-.7.156-.8,1-.983,1.217-.363.234-.67.078A8.427,8.427,0,0,1,9.463,14c-.318-.547.318-.508.91-1.69a.574.574,0,0,0-.028-.541c-.078-.156-.7-1.679-.954-2.3-.251-.6-.508-.519-.7-.53s-.385-.011-.591-.011a1.147,1.147,0,0,0-.826.385,3.477,3.477,0,0,0-1.083,2.583,6.061,6.061,0,0,0,1.261,3.2,13.829,13.829,0,0,0,5.29,4.676c1.964.848,2.734.921,3.717.775a3.174,3.174,0,0,0,2.087-1.473,2.6,2.6,0,0,0,.179-1.473c-.072-.14-.279-.217-.586-.368Z" transform="translate(0 -2.25)"/></svg>